<mxfile host="app.diagrams.net" modified="2023-11-20T23:25:37.206Z" agent="Mozilla/5.0 (Windows NT 10.0; Win64; x64) AppleWebKit/537.36 (KHTML, like Gecko) Chrome/119.0.0.0 Safari/537.36" etag="f5kSGLaDJ-z8isyGo2i6" version="22.1.3" type="device">
  <diagram name="Strona-1" id="QP12jHa_MOJbcI8iKIFo">
    <mxGraphModel dx="1526" dy="825" grid="1" gridSize="10" guides="1" tooltips="1" connect="1" arrows="1" fold="1" page="1" pageScale="1" pageWidth="827" pageHeight="1169" math="0" shadow="0">
      <root>
        <mxCell id="0" />
        <mxCell id="1" parent="0" />
        <mxCell id="wr7p7q90e52bjkLaRT0F-17" value="" style="group" vertex="1" connectable="0" parent="1">
          <mxGeometry x="30" y="10" width="620" height="560" as="geometry" />
        </mxCell>
        <mxCell id="wr7p7q90e52bjkLaRT0F-90" value="" style="rounded=0;whiteSpace=wrap;html=1;fillColor=none;strokeColor=none;" vertex="1" parent="wr7p7q90e52bjkLaRT0F-17">
          <mxGeometry x="-10" y="-10" width="590" height="570" as="geometry" />
        </mxCell>
        <mxCell id="wr7p7q90e52bjkLaRT0F-6" value="" style="rounded=0;whiteSpace=wrap;html=1;" vertex="1" parent="wr7p7q90e52bjkLaRT0F-17">
          <mxGeometry width="570" height="290" as="geometry" />
        </mxCell>
        <mxCell id="wr7p7q90e52bjkLaRT0F-5" value="" style="editableCssRules=.*;html=1;shape=image;verticalLabelPosition=bottom;labelBackgroundColor=#ffffff;verticalAlign=top;aspect=fixed;imageAspect=0;image=data:image/svg+xml,PHN2ZyB4bWxucz0iaHR0cDovL3d3dy53My5vcmcvMjAwMC9zdmciIHhtbG5zOnY9Imh0dHBzOi8vdmVjdGEuaW8vbmFubyIgd2lkdGg9IjIwIiBoZWlnaHQ9IjIwIiB2aWV3Qm94PSIwIDAgMjAgMjAiPiYjeGE7CTxzdHlsZSB0eXBlPSJ0ZXh0L2NzcyI+JiN4YTsJLnN0MHtmaWxsOiM0Mjg1ZjQ7fSYjeGE7CS5zdDF7ZmlsbDojNjY5ZGY2O30mI3hhOwkuc3Qye2ZpbGw6I2FlY2JmYTt9JiN4YTsJPC9zdHlsZT4mI3hhOwk8cGF0aCBjbGFzcz0ic3QyIiBkPSJNMTQgMGg2djZoLTZ6Ii8+JiN4YTsJPHBhdGggY2xhc3M9InN0MSIgZD0iTTE3IDBoM3Y2aC0zeiIvPiYjeGE7CTxwYXRoIGNsYXNzPSJzdDIiIGQ9Ik0xNCAxNGg2djZoLTZ6Ii8+JiN4YTsJPHBhdGggY2xhc3M9InN0MSIgZD0iTTE3IDE0aDN2NmgtM3oiLz4mI3hhOwk8cGF0aCBjbGFzcz0ic3QyIiBkPSJNMCAwaDZ2NkgweiIvPiYjeGE7CTxwYXRoIGNsYXNzPSJzdDEiIGQ9Ik0zIDBoM3Y2SDN6Ii8+JiN4YTsJPHBhdGggY2xhc3M9InN0MiIgZD0iTTAgMTRoNnY2SDB6Ii8+JiN4YTsJPGcgY2xhc3M9InN0MSI+JiN4YTsJCTxwYXRoIGQ9Ik0zIDE0aDN2Nkgzek02IDJoOHYySDZ6Ii8+JiN4YTsJCTxwYXRoIGQ9Ik02IDE2aDh2Mkg2ek0xNiA2aDJ2OGgtMnpNMiA2aDJ2OEgyeiIvPiYjeGE7CTwvZz4mI3hhOwk8cGF0aCBjbGFzcz0ic3QwIiBkPSJNMiA2aDJ2Mkgyem0xNCAwaDJ2MmgtMnpNNiAyaDJ2Mkg2em0wIDE0aDJ2Mkg2eiIvPiYjeGE7PC9zdmc+;" vertex="1" parent="wr7p7q90e52bjkLaRT0F-17">
          <mxGeometry x="16.36363636363636" y="6.086956521739131" width="40" height="40" as="geometry" />
        </mxCell>
        <mxCell id="wr7p7q90e52bjkLaRT0F-12" value="main-vpc" style="text;html=1;strokeColor=#666666;fillColor=#f5f5f5;align=center;verticalAlign=middle;whiteSpace=wrap;rounded=0;fontColor=#333333;" vertex="1" parent="wr7p7q90e52bjkLaRT0F-17">
          <mxGeometry x="66.12345083487939" y="10.867391304347828" width="130.90909090909088" height="30.434782608695656" as="geometry" />
        </mxCell>
        <mxCell id="wr7p7q90e52bjkLaRT0F-16" value="" style="group" vertex="1" connectable="0" parent="wr7p7q90e52bjkLaRT0F-17">
          <mxGeometry x="16.365306122448978" y="60.86956521739131" width="193.02244897959181" height="206.96" as="geometry" />
        </mxCell>
        <mxCell id="wr7p7q90e52bjkLaRT0F-8" value="" style="rounded=0;whiteSpace=wrap;html=1;" vertex="1" parent="wr7p7q90e52bjkLaRT0F-16">
          <mxGeometry width="140" height="206.96" as="geometry" />
        </mxCell>
        <mxCell id="wr7p7q90e52bjkLaRT0F-10" value="composer-subnet&lt;br&gt;10.11.0.0/16" style="text;html=1;strokeColor=#666666;fillColor=#f5f5f5;align=center;verticalAlign=middle;whiteSpace=wrap;rounded=0;fontColor=#333333;" vertex="1" parent="wr7p7q90e52bjkLaRT0F-16">
          <mxGeometry width="110" height="36.52" as="geometry" />
        </mxCell>
        <mxCell id="wr7p7q90e52bjkLaRT0F-13" value="Cloud&#xa;Composer" style="sketch=0;html=1;verticalAlign=top;labelPosition=center;verticalLabelPosition=bottom;align=center;spacingTop=-6;fontSize=11;fontStyle=1;fontColor=#999999;shape=image;aspect=fixed;imageAspect=0;image=data:image/svg+xml,PHN2ZyB4bWxucz0iaHR0cDovL3d3dy53My5vcmcvMjAwMC9zdmciIHhtbG5zOnY9Imh0dHBzOi8vdmVjdGEuaW8vbmFubyIgd2lkdGg9IjE0LjY0MDAwMDM0MzMyMjc1NCIgaGVpZ2h0PSIyMCIgdmlld0JveD0iMCAwIDE0LjY0MDAwMDM0MzMyMjc1NCAyMCI+JiN4YTsJPHN0eWxlIHR5cGU9InRleHQvY3NzIj4mI3hhOwkuc3Qwe2ZpbGw6I2FlY2JmYTt9JiN4YTsJLnN0MXtmaWxsOiM0Mjg1ZjQ7fSYjeGE7CTwvc3R5bGU+JiN4YTsJPHBhdGggY2xhc3M9InN0MCIgZD0iTTAgMGgxNC42M3YzLjk0aC01LjN2NS4zM0g1LjM1VjMuOTZIMHoiLz4mI3hhOwk8cGF0aCBjbGFzcz0ic3QxIiBkPSJNMy45NSAxMC42N2g1LjM0VjIwSDUuMzV2LTUuMzVIMFY1LjM3aDMuOTV6TTE0LjY0IDIwSDEwLjdWNS4zNmgzLjk0eiIvPiYjeGE7CTxwYXRoIGNsYXNzPSJzdDAiIGQ9Ik0wIDE2LjA2aDMuOTJWMjBIMHoiLz4mI3hhOzwvc3ZnPg==;" vertex="1" parent="wr7p7q90e52bjkLaRT0F-16">
          <mxGeometry x="57.83510204081632" y="75.47826086956522" width="35.05" height="46" as="geometry" />
        </mxCell>
        <mxCell id="wr7p7q90e52bjkLaRT0F-15" value="" style="group" vertex="1" connectable="0" parent="wr7p7q90e52bjkLaRT0F-17">
          <mxGeometry x="169.99693877551022" y="54.349999999999994" width="410" height="220" as="geometry" />
        </mxCell>
        <mxCell id="wr7p7q90e52bjkLaRT0F-9" value="" style="rounded=0;whiteSpace=wrap;html=1;" vertex="1" parent="wr7p7q90e52bjkLaRT0F-15">
          <mxGeometry width="390" height="220" as="geometry" />
        </mxCell>
        <mxCell id="wr7p7q90e52bjkLaRT0F-11" value="notebook-subnet&lt;br&gt;10.10.10.0/24" style="text;html=1;strokeColor=#666666;fillColor=#f5f5f5;align=center;verticalAlign=middle;whiteSpace=wrap;rounded=0;fontColor=#333333;" vertex="1" parent="wr7p7q90e52bjkLaRT0F-15">
          <mxGeometry width="121.22448979591836" height="36.67588235294117" as="geometry" />
        </mxCell>
        <mxCell id="wr7p7q90e52bjkLaRT0F-53" value="" style="rounded=0;whiteSpace=wrap;html=1;" vertex="1" parent="wr7p7q90e52bjkLaRT0F-15">
          <mxGeometry x="11.02" y="44.92" width="268.98" height="165.08" as="geometry" />
        </mxCell>
        <mxCell id="wr7p7q90e52bjkLaRT0F-3" value="Dataproc" style="sketch=0;html=1;verticalAlign=top;labelPosition=center;verticalLabelPosition=bottom;align=center;spacingTop=-6;fontSize=11;fontStyle=1;fontColor=#999999;shape=image;aspect=fixed;imageAspect=0;image=data:image/svg+xml,PHN2ZyB4bWxucz0iaHR0cDovL3d3dy53My5vcmcvMjAwMC9zdmciIHhtbG5zOnY9Imh0dHBzOi8vdmVjdGEuaW8vbmFubyIgd2lkdGg9IjE5LjM2MzAxMjMxMzg0Mjc3MyIgaGVpZ2h0PSIxNy45NzU1MjY4MDk2OTIzODMiIHZpZXdCb3g9IjAuMDAwNTYwMDI1NjI2MzI3ODQyNSAwLjYxOTYyOTc0MDcxNTAyNjkgMTkuMzYzMDEyMzEzODQyNzczIDE3Ljk3NTUyNjgwOTY5MjM4MyI+JiN4YTsJPHN0eWxlIHR5cGU9InRleHQvY3NzIj4mI3hhOwkuc3Qwe2ZpbGwtcnVsZTpldmVub2RkO30mI3hhOwkuc3Qxe2ZpbGw6I2FlY2JmYTt9JiN4YTsJLnN0MntmaWxsOiM0Mjg1ZjQ7fSYjeGE7CS5zdDN7ZmlsbDojNjY5ZGY2O30mI3hhOwk8L3N0eWxlPiYjeGE7CTxnIGNsYXNzPSJzdDAgc3QxIj4mI3hhOwkJPHBhdGggZD0iTTQuNjkgMTYuNGwxMC4xOS01Ljg5Ljk3IDEuNjktMTAuMTggNS44OHoiLz4mI3hhOwkJPHBhdGggZD0iTTcuNSA0LjR2MTAuMzVsLTEuODcgMS40MVY0LjR6Ii8+JiN4YTsJCTxwYXRoIGQ9Ik0xNy40OSAxMS4ybC0uOTcgMS42OC04Ljk2LTUuMTktLjI2LTIuMzZ6Ii8+JiN4YTsJPC9nPiYjeGE7CTxwYXRoIGNsYXNzPSJzdDAgc3QyIiBkPSJNMTIuMzkgOC4yNkw3LjMgNS4zM2wuMjYgMi4zNiAxLjUxLjg2YTQgNCAwIDAgMCAzLjMyLS4yOXoiLz4mI3hhOwk8cGF0aCBjbGFzcz0ic3QwIHN0MSIgZD0iTTYuMTMgNi4yOWgwYTMuNzggMy43OCAwIDAgMSA1LjE2NS01LjE2M0EzLjc4IDMuNzggMCAwIDEgOS40IDguMThhMy44IDMuOCAwIDAgMS0zLjI3LTEuODl6TTExIDMuNDlhMS44NCAxLjg0IDAgMCAwLTEuNTktLjkyQTEuODMgMS44MyAwIDAgMCA3LjU3IDQuNGExLjg0IDEuODQgMCAwIDAgMi43OTQgMS43MDZBMS44NCAxLjg0IDAgMCAwIDExLjI0IDQuNGExLjggMS44IDAgMCAwLS4yNC0uOTF6Ii8+JiN4YTsJPHBhdGggY2xhc3M9InN0MCBzdDIiIGQ9Ik01LjYzIDEwLjk0djUuMjJsMS44Ny0xLjQxdi0xLjYzYTMuMjkgMy4yOSAwIDAgMC0xLjg3LTIuMTh6bTUuNyAzLjg3bDQuNTItMi42MS0yLjIxLTEtMS4yNS44YTQuMjMgNC4yMyAwIDAgMC0xLjA2IDIuODZ6Ii8+JiN4YTsJPHBhdGggY2xhc3M9InN0MCBzdDEiIGQ9Ik0uNTEgMTYuN2gwYTMuNzcgMy43NyAwIDAgMSAxLjM4LTUuMTYgMy43MiAzLjcyIDAgMCAxIDIuODYtLjM4QTMuNzggMy43OCAwIDEgMSAuNTEgMTYuN3ptNC44NS0yLjgxQTEuNzkgMS43OSAwIDAgMCA0LjI1IDEzYTEuODMgMS44MyAwIDAgMC0yLjA2IDIuNjloMGMuMzI5LjU2Ni45MzQuOTE0IDEuNTg5LjkxM2ExLjgzIDEuODMgMCAwIDAgMS41ODUtLjkyYy4zMjYtLjU2OC4zMjQtMS4yNjctLjAwNC0xLjgzM3ptNi45NyAyLjQ3aDBhMy43OSAzLjc5IDAgMCAxIDAtMy43NyAzLjc5IDMuNzkgMCAwIDEgNS4xNi0xLjM5IDMuNzggMy43OCAwIDAgMS0xLjg5IDcuMDQ0IDMuNzggMy43OCAwIDAgMS0zLjI3LTEuODg0em00Ljg2LTIuODFhMiAyIDAgMCAwLS42Ny0uNjcgMS44NSAxLjg1IDAgMCAwLTIuNTEuNjggMS44NiAxLjg2IDAgMCAwIDAgMS44MyAxLjgzIDEuODMgMCAwIDAgMi4wNy44NSAxLjgyIDEuODIgMCAwIDAgMS4xMS0uODUgMS44OCAxLjg4IDAgMCAwIDAtMS44NHoiLz4mI3hhOwk8cGF0aCBjbGFzcz0ic3QwIHN0MyIgZD0iTTcuNDkgMTQuMTVsLTIuOCAyLjI1IDIuODYtMS42NWE0LjA3IDQuMDcgMCAwIDAtLjA2LS42ek04LjE1IDhsLS41OS0zLjZ2My4yOWEzLjQ3IDMuNDcgMCAwIDAgLjU5LjI3em01LjE1IDMuNDdsMy4yMiAxLjQxLTIuODYtMS42NGExLjY5IDEuNjkgMCAwIDAtLjM2LjIzeiIvPiYjeGE7PC9zdmc+;" vertex="1" parent="wr7p7q90e52bjkLaRT0F-15">
          <mxGeometry x="22.04081632653061" y="48.9" width="32.65" height="31.1" as="geometry" />
        </mxCell>
        <mxCell id="wr7p7q90e52bjkLaRT0F-54" value="Master node&lt;br&gt;port - 16384" style="verticalLabelPosition=bottom;html=1;verticalAlign=top;align=center;strokeColor=#6c8ebf;fillColor=#dae8fc;shape=mxgraph.azure.computer;pointerEvents=1;" vertex="1" parent="wr7p7q90e52bjkLaRT0F-15">
          <mxGeometry x="30.00306122448975" y="110" width="50" height="45" as="geometry" />
        </mxCell>
        <mxCell id="wr7p7q90e52bjkLaRT0F-63" value="Worker node 2" style="verticalLabelPosition=bottom;html=1;verticalAlign=top;align=center;strokeColor=#6c8ebf;fillColor=#dae8fc;shape=mxgraph.azure.computer;pointerEvents=1;" vertex="1" parent="wr7p7q90e52bjkLaRT0F-15">
          <mxGeometry x="170.00306122448978" y="140" width="50" height="45" as="geometry" />
        </mxCell>
        <mxCell id="wr7p7q90e52bjkLaRT0F-62" value="Worker node 1" style="verticalLabelPosition=bottom;html=1;verticalAlign=top;align=center;strokeColor=#6c8ebf;fillColor=#dae8fc;shape=mxgraph.azure.computer;pointerEvents=1;" vertex="1" parent="wr7p7q90e52bjkLaRT0F-15">
          <mxGeometry x="170.00306122448978" y="48.89999999999998" width="50" height="45" as="geometry" />
        </mxCell>
        <mxCell id="wr7p7q90e52bjkLaRT0F-66" value="" style="endArrow=classic;startArrow=classic;html=1;rounded=0;entryX=0;entryY=0.5;entryDx=0;entryDy=0;entryPerimeter=0;exitX=1.007;exitY=0.237;exitDx=0;exitDy=0;exitPerimeter=0;" edge="1" parent="wr7p7q90e52bjkLaRT0F-15" source="wr7p7q90e52bjkLaRT0F-54" target="wr7p7q90e52bjkLaRT0F-62">
          <mxGeometry width="50" height="50" relative="1" as="geometry">
            <mxPoint x="111.01999999999998" y="130.1174473494005" as="sourcePoint" />
            <mxPoint x="180.00306122448978" y="124.81" as="targetPoint" />
          </mxGeometry>
        </mxCell>
        <mxCell id="wr7p7q90e52bjkLaRT0F-67" value="" style="endArrow=classic;startArrow=classic;html=1;rounded=0;entryX=0;entryY=0.5;entryDx=0;entryDy=0;entryPerimeter=0;exitX=1.007;exitY=0.741;exitDx=0;exitDy=0;exitPerimeter=0;" edge="1" parent="wr7p7q90e52bjkLaRT0F-15" source="wr7p7q90e52bjkLaRT0F-54" target="wr7p7q90e52bjkLaRT0F-63">
          <mxGeometry width="50" height="50" relative="1" as="geometry">
            <mxPoint x="90" y="143" as="sourcePoint" />
            <mxPoint x="180" y="81" as="targetPoint" />
          </mxGeometry>
        </mxCell>
        <mxCell id="wr7p7q90e52bjkLaRT0F-69" value="" style="endArrow=classic;startArrow=classic;html=1;rounded=0;entryX=0.5;entryY=1;entryDx=0;entryDy=0;entryPerimeter=0;exitX=0.5;exitY=0;exitDx=0;exitDy=0;exitPerimeter=0;" edge="1" parent="wr7p7q90e52bjkLaRT0F-15" source="wr7p7q90e52bjkLaRT0F-63" target="wr7p7q90e52bjkLaRT0F-62">
          <mxGeometry width="50" height="50" relative="1" as="geometry">
            <mxPoint x="170.00306122448978" y="160" as="sourcePoint" />
            <mxPoint x="220.00306122448978" y="110" as="targetPoint" />
          </mxGeometry>
        </mxCell>
        <mxCell id="wr7p7q90e52bjkLaRT0F-72" value="" style="group" vertex="1" connectable="0" parent="wr7p7q90e52bjkLaRT0F-15">
          <mxGeometry x="300.0030612244898" y="66.95000000000002" width="75.18000000000006" height="98.69999999999999" as="geometry" />
        </mxCell>
        <mxCell id="wr7p7q90e52bjkLaRT0F-14" value="" style="rounded=1;whiteSpace=wrap;html=1;align=left;" vertex="1" parent="wr7p7q90e52bjkLaRT0F-72">
          <mxGeometry width="75.18" height="98.7" as="geometry" />
        </mxCell>
        <mxCell id="wr7p7q90e52bjkLaRT0F-70" value="" style="verticalLabelPosition=bottom;html=1;verticalAlign=top;align=center;strokeColor=#6c8ebf;fillColor=#dae8fc;shape=mxgraph.azure.computer;pointerEvents=1;" vertex="1" parent="wr7p7q90e52bjkLaRT0F-72">
          <mxGeometry x="12.590000000000032" y="8.699999999999989" width="50" height="45" as="geometry" />
        </mxCell>
        <mxCell id="wr7p7q90e52bjkLaRT0F-71" value="VertexAI&lt;br&gt;Notebook" style="text;html=1;strokeColor=none;fillColor=none;align=center;verticalAlign=middle;whiteSpace=wrap;rounded=0;" vertex="1" parent="wr7p7q90e52bjkLaRT0F-72">
          <mxGeometry x="7.590000000000032" y="58.69999999999999" width="60" height="30" as="geometry" />
        </mxCell>
        <mxCell id="wr7p7q90e52bjkLaRT0F-51" value="" style="group" vertex="1" connectable="0" parent="1">
          <mxGeometry x="290" y="310" width="340" height="250" as="geometry" />
        </mxCell>
        <mxCell id="wr7p7q90e52bjkLaRT0F-19" value="" style="rounded=0;whiteSpace=wrap;html=1;" vertex="1" parent="wr7p7q90e52bjkLaRT0F-51">
          <mxGeometry width="310" height="250" as="geometry" />
        </mxCell>
        <mxCell id="wr7p7q90e52bjkLaRT0F-35" value="tbd-code-bucket  " style="strokeColor=#dddddd;shadow=1;strokeWidth=1;rounded=1;absoluteArcSize=1;arcSize=2;align=right;fontSize=10;" vertex="1" parent="wr7p7q90e52bjkLaRT0F-51">
          <mxGeometry x="10.97" y="9.62" width="149.03" height="51.92" as="geometry" />
        </mxCell>
        <mxCell id="wr7p7q90e52bjkLaRT0F-36" value="" style="editableCssRules=.*;html=1;fontColor=#999999;shape=image;verticalLabelPosition=middle;labelBackgroundColor=#ffffff;verticalAlign=middle;labelPosition=right;align=left;spacingLeft=20;part=1;points=[];imageAspect=0;image=data:image/svg+xml,PHN2ZyB4bWxucz0iaHR0cDovL3d3dy53My5vcmcvMjAwMC9zdmciIHhtbG5zOnY9Imh0dHBzOi8vdmVjdGEuaW8vbmFubyIgd2lkdGg9IjIwIiBoZWlnaHQ9IjE2IiB2aWV3Qm94PSIwIDAgMjAgMTYiPiYjeGE7CTxzdHlsZSB0eXBlPSJ0ZXh0L2NzcyI+JiN4YTsJLnN0MHtmaWxsOiM0Mjg1ZjQ7fSYjeGE7CS5zdDF7ZmlsbDojNjY5ZGY2O30mI3hhOwkuc3Qye2ZpbGw6I2FlY2JmYTt9JiN4YTsJLnN0M3tmaWxsOiNmZmY7fSYjeGE7CTwvc3R5bGU+JiN4YTsJPHBhdGggY2xhc3M9InN0MiIgZD0iTTAgMGgyMHY3SDB6Ii8+JiN4YTsJPHBhdGggY2xhc3M9InN0MSIgZD0iTTE4IDBoMnY3aC0yeiIvPiYjeGE7CTxwYXRoIGNsYXNzPSJzdDAiIGQ9Ik0xOCA3bDItN2gtMnoiLz4mI3hhOwk8cGF0aCBjbGFzcz0ic3QxIiBkPSJNMCAwaDJ2N0gweiIvPiYjeGE7CTxnIGNsYXNzPSJzdDMiPiYjeGE7CQk8cGF0aCBkPSJNNCAzaDZ2MUg0eiIvPiYjeGE7CQk8cmVjdCB4PSIxMyIgeT0iMiIgd2lkdGg9IjMiIGhlaWdodD0iMyIgcng9IjEuNSIvPiYjeGE7CTwvZz4mI3hhOwk8cGF0aCBjbGFzcz0ic3QyIiBkPSJNMCA5aDIwdjdIMHoiLz4mI3hhOwk8cGF0aCBjbGFzcz0ic3QxIiBkPSJNMTggOWgydjdoLTJ6Ii8+JiN4YTsJPHBhdGggY2xhc3M9InN0MCIgZD0iTTE4IDE2bDItN2gtMnoiLz4mI3hhOwk8cGF0aCBjbGFzcz0ic3QxIiBkPSJNMCA5aDJ2N0gweiIvPiYjeGE7CTxnIGNsYXNzPSJzdDMiPiYjeGE7CQk8cGF0aCBkPSJNNCAxMmg2djFINHoiLz4mI3hhOwkJPHJlY3QgeD0iMTMiIHk9IjExIiB3aWR0aD0iMyIgaGVpZ2h0PSIzIiByeD0iMS41Ii8+JiN4YTsJPC9nPiYjeGE7PC9zdmc+;fontSize=10;" vertex="1" parent="wr7p7q90e52bjkLaRT0F-35">
          <mxGeometry width="30" height="24" relative="1" as="geometry">
            <mxPoint x="15" y="18" as="offset" />
          </mxGeometry>
        </mxCell>
        <mxCell id="wr7p7q90e52bjkLaRT0F-40" value="tbd-state-bucket  " style="strokeColor=#dddddd;shadow=1;strokeWidth=1;rounded=1;absoluteArcSize=1;arcSize=2;align=right;fontSize=10;" vertex="1" parent="wr7p7q90e52bjkLaRT0F-51">
          <mxGeometry x="10.97" y="67.31" width="149.03" height="51.92" as="geometry" />
        </mxCell>
        <mxCell id="wr7p7q90e52bjkLaRT0F-41" value="" style="editableCssRules=.*;html=1;fontColor=#999999;shape=image;verticalLabelPosition=middle;labelBackgroundColor=#ffffff;verticalAlign=middle;labelPosition=right;align=left;spacingLeft=20;part=1;points=[];imageAspect=0;image=data:image/svg+xml,PHN2ZyB4bWxucz0iaHR0cDovL3d3dy53My5vcmcvMjAwMC9zdmciIHhtbG5zOnY9Imh0dHBzOi8vdmVjdGEuaW8vbmFubyIgd2lkdGg9IjIwIiBoZWlnaHQ9IjE2IiB2aWV3Qm94PSIwIDAgMjAgMTYiPiYjeGE7CTxzdHlsZSB0eXBlPSJ0ZXh0L2NzcyI+JiN4YTsJLnN0MHtmaWxsOiM0Mjg1ZjQ7fSYjeGE7CS5zdDF7ZmlsbDojNjY5ZGY2O30mI3hhOwkuc3Qye2ZpbGw6I2FlY2JmYTt9JiN4YTsJLnN0M3tmaWxsOiNmZmY7fSYjeGE7CTwvc3R5bGU+JiN4YTsJPHBhdGggY2xhc3M9InN0MiIgZD0iTTAgMGgyMHY3SDB6Ii8+JiN4YTsJPHBhdGggY2xhc3M9InN0MSIgZD0iTTE4IDBoMnY3aC0yeiIvPiYjeGE7CTxwYXRoIGNsYXNzPSJzdDAiIGQ9Ik0xOCA3bDItN2gtMnoiLz4mI3hhOwk8cGF0aCBjbGFzcz0ic3QxIiBkPSJNMCAwaDJ2N0gweiIvPiYjeGE7CTxnIGNsYXNzPSJzdDMiPiYjeGE7CQk8cGF0aCBkPSJNNCAzaDZ2MUg0eiIvPiYjeGE7CQk8cmVjdCB4PSIxMyIgeT0iMiIgd2lkdGg9IjMiIGhlaWdodD0iMyIgcng9IjEuNSIvPiYjeGE7CTwvZz4mI3hhOwk8cGF0aCBjbGFzcz0ic3QyIiBkPSJNMCA5aDIwdjdIMHoiLz4mI3hhOwk8cGF0aCBjbGFzcz0ic3QxIiBkPSJNMTggOWgydjdoLTJ6Ii8+JiN4YTsJPHBhdGggY2xhc3M9InN0MCIgZD0iTTE4IDE2bDItN2gtMnoiLz4mI3hhOwk8cGF0aCBjbGFzcz0ic3QxIiBkPSJNMCA5aDJ2N0gweiIvPiYjeGE7CTxnIGNsYXNzPSJzdDMiPiYjeGE7CQk8cGF0aCBkPSJNNCAxMmg2djFINHoiLz4mI3hhOwkJPHJlY3QgeD0iMTMiIHk9IjExIiB3aWR0aD0iMyIgaGVpZ2h0PSIzIiByeD0iMS41Ii8+JiN4YTsJPC9nPiYjeGE7PC9zdmc+;fontSize=10;" vertex="1" parent="wr7p7q90e52bjkLaRT0F-40">
          <mxGeometry width="30" height="24" relative="1" as="geometry">
            <mxPoint x="15" y="18" as="offset" />
          </mxGeometry>
        </mxCell>
        <mxCell id="wr7p7q90e52bjkLaRT0F-42" value="tbd-data-bucket  " style="strokeColor=#dddddd;shadow=1;strokeWidth=1;rounded=1;absoluteArcSize=1;arcSize=2;align=right;fontSize=10;" vertex="1" parent="wr7p7q90e52bjkLaRT0F-51">
          <mxGeometry x="10.97" y="125" width="149.03" height="51.92" as="geometry" />
        </mxCell>
        <mxCell id="wr7p7q90e52bjkLaRT0F-43" value="" style="editableCssRules=.*;html=1;fontColor=#999999;shape=image;verticalLabelPosition=middle;labelBackgroundColor=#ffffff;verticalAlign=middle;labelPosition=right;align=left;spacingLeft=20;part=1;points=[];imageAspect=0;image=data:image/svg+xml,PHN2ZyB4bWxucz0iaHR0cDovL3d3dy53My5vcmcvMjAwMC9zdmciIHhtbG5zOnY9Imh0dHBzOi8vdmVjdGEuaW8vbmFubyIgd2lkdGg9IjIwIiBoZWlnaHQ9IjE2IiB2aWV3Qm94PSIwIDAgMjAgMTYiPiYjeGE7CTxzdHlsZSB0eXBlPSJ0ZXh0L2NzcyI+JiN4YTsJLnN0MHtmaWxsOiM0Mjg1ZjQ7fSYjeGE7CS5zdDF7ZmlsbDojNjY5ZGY2O30mI3hhOwkuc3Qye2ZpbGw6I2FlY2JmYTt9JiN4YTsJLnN0M3tmaWxsOiNmZmY7fSYjeGE7CTwvc3R5bGU+JiN4YTsJPHBhdGggY2xhc3M9InN0MiIgZD0iTTAgMGgyMHY3SDB6Ii8+JiN4YTsJPHBhdGggY2xhc3M9InN0MSIgZD0iTTE4IDBoMnY3aC0yeiIvPiYjeGE7CTxwYXRoIGNsYXNzPSJzdDAiIGQ9Ik0xOCA3bDItN2gtMnoiLz4mI3hhOwk8cGF0aCBjbGFzcz0ic3QxIiBkPSJNMCAwaDJ2N0gweiIvPiYjeGE7CTxnIGNsYXNzPSJzdDMiPiYjeGE7CQk8cGF0aCBkPSJNNCAzaDZ2MUg0eiIvPiYjeGE7CQk8cmVjdCB4PSIxMyIgeT0iMiIgd2lkdGg9IjMiIGhlaWdodD0iMyIgcng9IjEuNSIvPiYjeGE7CTwvZz4mI3hhOwk8cGF0aCBjbGFzcz0ic3QyIiBkPSJNMCA5aDIwdjdIMHoiLz4mI3hhOwk8cGF0aCBjbGFzcz0ic3QxIiBkPSJNMTggOWgydjdoLTJ6Ii8+JiN4YTsJPHBhdGggY2xhc3M9InN0MCIgZD0iTTE4IDE2bDItN2gtMnoiLz4mI3hhOwk8cGF0aCBjbGFzcz0ic3QxIiBkPSJNMCA5aDJ2N0gweiIvPiYjeGE7CTxnIGNsYXNzPSJzdDMiPiYjeGE7CQk8cGF0aCBkPSJNNCAxMmg2djFINHoiLz4mI3hhOwkJPHJlY3QgeD0iMTMiIHk9IjExIiB3aWR0aD0iMyIgaGVpZ2h0PSIzIiByeD0iMS41Ii8+JiN4YTsJPC9nPiYjeGE7PC9zdmc+;fontSize=10;" vertex="1" parent="wr7p7q90e52bjkLaRT0F-42">
          <mxGeometry width="30" height="24" relative="1" as="geometry">
            <mxPoint x="15" y="18" as="offset" />
          </mxGeometry>
        </mxCell>
        <mxCell id="wr7p7q90e52bjkLaRT0F-44" value="notebook-conf-bucket" style="strokeColor=#dddddd;shadow=1;strokeWidth=1;rounded=1;absoluteArcSize=1;arcSize=2;align=right;fontSize=10;" vertex="1" parent="wr7p7q90e52bjkLaRT0F-51">
          <mxGeometry x="10.97" y="182.69" width="149.03" height="51.92" as="geometry" />
        </mxCell>
        <mxCell id="wr7p7q90e52bjkLaRT0F-45" value="" style="editableCssRules=.*;html=1;fontColor=#999999;shape=image;verticalLabelPosition=middle;labelBackgroundColor=#ffffff;verticalAlign=middle;labelPosition=right;align=left;spacingLeft=20;part=1;points=[];imageAspect=0;image=data:image/svg+xml,PHN2ZyB4bWxucz0iaHR0cDovL3d3dy53My5vcmcvMjAwMC9zdmciIHhtbG5zOnY9Imh0dHBzOi8vdmVjdGEuaW8vbmFubyIgd2lkdGg9IjIwIiBoZWlnaHQ9IjE2IiB2aWV3Qm94PSIwIDAgMjAgMTYiPiYjeGE7CTxzdHlsZSB0eXBlPSJ0ZXh0L2NzcyI+JiN4YTsJLnN0MHtmaWxsOiM0Mjg1ZjQ7fSYjeGE7CS5zdDF7ZmlsbDojNjY5ZGY2O30mI3hhOwkuc3Qye2ZpbGw6I2FlY2JmYTt9JiN4YTsJLnN0M3tmaWxsOiNmZmY7fSYjeGE7CTwvc3R5bGU+JiN4YTsJPHBhdGggY2xhc3M9InN0MiIgZD0iTTAgMGgyMHY3SDB6Ii8+JiN4YTsJPHBhdGggY2xhc3M9InN0MSIgZD0iTTE4IDBoMnY3aC0yeiIvPiYjeGE7CTxwYXRoIGNsYXNzPSJzdDAiIGQ9Ik0xOCA3bDItN2gtMnoiLz4mI3hhOwk8cGF0aCBjbGFzcz0ic3QxIiBkPSJNMCAwaDJ2N0gweiIvPiYjeGE7CTxnIGNsYXNzPSJzdDMiPiYjeGE7CQk8cGF0aCBkPSJNNCAzaDZ2MUg0eiIvPiYjeGE7CQk8cmVjdCB4PSIxMyIgeT0iMiIgd2lkdGg9IjMiIGhlaWdodD0iMyIgcng9IjEuNSIvPiYjeGE7CTwvZz4mI3hhOwk8cGF0aCBjbGFzcz0ic3QyIiBkPSJNMCA5aDIwdjdIMHoiLz4mI3hhOwk8cGF0aCBjbGFzcz0ic3QxIiBkPSJNMTggOWgydjdoLTJ6Ii8+JiN4YTsJPHBhdGggY2xhc3M9InN0MCIgZD0iTTE4IDE2bDItN2gtMnoiLz4mI3hhOwk8cGF0aCBjbGFzcz0ic3QxIiBkPSJNMCA5aDJ2N0gweiIvPiYjeGE7CTxnIGNsYXNzPSJzdDMiPiYjeGE7CQk8cGF0aCBkPSJNNCAxMmg2djFINHoiLz4mI3hhOwkJPHJlY3QgeD0iMTMiIHk9IjExIiB3aWR0aD0iMyIgaGVpZ2h0PSIzIiByeD0iMS41Ii8+JiN4YTsJPC9nPiYjeGE7PC9zdmc+;fontSize=10;" vertex="1" parent="wr7p7q90e52bjkLaRT0F-44">
          <mxGeometry width="30" height="24" relative="1" as="geometry">
            <mxPoint x="15" y="18" as="offset" />
          </mxGeometry>
        </mxCell>
        <mxCell id="wr7p7q90e52bjkLaRT0F-73" value="Terraform state bucket" style="text;html=1;strokeColor=none;fillColor=none;align=left;verticalAlign=middle;whiteSpace=wrap;rounded=0;" vertex="1" parent="wr7p7q90e52bjkLaRT0F-51">
          <mxGeometry x="170" y="78.26999999999998" width="110" height="30" as="geometry" />
        </mxCell>
        <mxCell id="wr7p7q90e52bjkLaRT0F-74" value="Bucket for data pipeline code" style="text;html=1;strokeColor=none;fillColor=none;align=left;verticalAlign=middle;whiteSpace=wrap;rounded=0;" vertex="1" parent="wr7p7q90e52bjkLaRT0F-51">
          <mxGeometry x="170" y="20.579999999999984" width="110" height="30" as="geometry" />
        </mxCell>
        <mxCell id="wr7p7q90e52bjkLaRT0F-87" value="Bucket for storing and processing Aitflow data" style="text;html=1;strokeColor=none;fillColor=none;align=left;verticalAlign=middle;whiteSpace=wrap;rounded=0;" vertex="1" parent="wr7p7q90e52bjkLaRT0F-51">
          <mxGeometry x="170" y="135.95999999999998" width="130" height="30" as="geometry" />
        </mxCell>
        <mxCell id="wr7p7q90e52bjkLaRT0F-88" value="Bucket for post startup script" style="text;html=1;strokeColor=none;fillColor=none;align=left;verticalAlign=middle;whiteSpace=wrap;rounded=0;" vertex="1" parent="wr7p7q90e52bjkLaRT0F-51">
          <mxGeometry x="170" y="193.64999999999998" width="130" height="30" as="geometry" />
        </mxCell>
        <mxCell id="wr7p7q90e52bjkLaRT0F-52" value="" style="group" vertex="1" connectable="0" parent="1">
          <mxGeometry x="30" y="330" width="200" height="218" as="geometry" />
        </mxCell>
        <mxCell id="wr7p7q90e52bjkLaRT0F-50" value="" style="rounded=0;whiteSpace=wrap;html=1;" vertex="1" parent="wr7p7q90e52bjkLaRT0F-52">
          <mxGeometry width="200" height="218" as="geometry" />
        </mxCell>
        <mxCell id="wr7p7q90e52bjkLaRT0F-22" value="" style="group" vertex="1" connectable="0" parent="wr7p7q90e52bjkLaRT0F-52">
          <mxGeometry x="10" y="2" width="170" height="36" as="geometry" />
        </mxCell>
        <mxCell id="wr7p7q90e52bjkLaRT0F-18" value="" style="sketch=0;pointerEvents=1;shadow=0;dashed=0;html=1;strokeColor=#6c8ebf;labelPosition=center;verticalLabelPosition=bottom;verticalAlign=top;align=center;fillColor=#dae8fc;shape=mxgraph.mscae.intune.account_portal" vertex="1" parent="wr7p7q90e52bjkLaRT0F-22">
          <mxGeometry y="6" width="22.666666666666664" height="24" as="geometry" />
        </mxCell>
        <mxCell id="wr7p7q90e52bjkLaRT0F-21" value="&lt;div style=&quot;background-color: rgb(255, 255, 255); font-family: Consolas, &amp;quot;Courier New&amp;quot;, monospace; font-size: 14px; line-height: 19px;&quot;&gt;tbd-composer-sa&lt;/div&gt;" style="text;html=1;strokeColor=none;fillColor=none;align=left;verticalAlign=middle;whiteSpace=wrap;rounded=0;" vertex="1" parent="wr7p7q90e52bjkLaRT0F-22">
          <mxGeometry x="34" width="136" height="36" as="geometry" />
        </mxCell>
        <mxCell id="wr7p7q90e52bjkLaRT0F-23" value="&lt;ul&gt;&lt;li&gt;&lt;font style=&quot;font-size: 10px;&quot;&gt;dataproc.editor&lt;/font&gt;&lt;/li&gt;&lt;li&gt;&lt;font style=&quot;font-size: 10px;&quot;&gt;composer.worker&lt;/font&gt;&lt;/li&gt;&lt;li&gt;&lt;font style=&quot;font-size: 10px;&quot;&gt;iam.serviceAccountUser&lt;/font&gt;&lt;/li&gt;&lt;/ul&gt;" style="text;html=1;strokeColor=none;fillColor=none;align=left;verticalAlign=middle;whiteSpace=wrap;rounded=0;" vertex="1" parent="wr7p7q90e52bjkLaRT0F-52">
          <mxGeometry x="30" y="38" width="158.67" height="44" as="geometry" />
        </mxCell>
        <mxCell id="wr7p7q90e52bjkLaRT0F-25" value="" style="group" vertex="1" connectable="0" parent="wr7p7q90e52bjkLaRT0F-52">
          <mxGeometry x="10" y="148" width="170" height="36" as="geometry" />
        </mxCell>
        <mxCell id="wr7p7q90e52bjkLaRT0F-26" value="" style="sketch=0;pointerEvents=1;shadow=0;dashed=0;html=1;strokeColor=#6c8ebf;labelPosition=center;verticalLabelPosition=bottom;verticalAlign=top;align=center;fillColor=#dae8fc;shape=mxgraph.mscae.intune.account_portal" vertex="1" parent="wr7p7q90e52bjkLaRT0F-25">
          <mxGeometry y="6" width="22.666666666666664" height="24" as="geometry" />
        </mxCell>
        <mxCell id="wr7p7q90e52bjkLaRT0F-27" value="&lt;div style=&quot;background-color: rgb(255, 255, 255); font-family: Consolas, &amp;quot;Courier New&amp;quot;, monospace; font-size: 14px; line-height: 19px;&quot;&gt;iac&lt;/div&gt;" style="text;html=1;strokeColor=none;fillColor=none;align=left;verticalAlign=middle;whiteSpace=wrap;rounded=0;" vertex="1" parent="wr7p7q90e52bjkLaRT0F-25">
          <mxGeometry x="34" width="136" height="36" as="geometry" />
        </mxCell>
        <mxCell id="wr7p7q90e52bjkLaRT0F-28" value="&lt;ul&gt;&lt;li&gt;&lt;span style=&quot;font-size: 10px; background-color: initial;&quot;&gt;iam.workloadIdentityUser&lt;/span&gt;&lt;br&gt;&lt;/li&gt;&lt;/ul&gt;" style="text;html=1;strokeColor=none;fillColor=none;align=left;verticalAlign=middle;whiteSpace=wrap;rounded=0;" vertex="1" parent="wr7p7q90e52bjkLaRT0F-52">
          <mxGeometry x="30" y="168" width="158.66666666666666" height="36" as="geometry" />
        </mxCell>
        <mxCell id="wr7p7q90e52bjkLaRT0F-46" value="" style="group" vertex="1" connectable="0" parent="wr7p7q90e52bjkLaRT0F-52">
          <mxGeometry x="10" y="88" width="170" height="36" as="geometry" />
        </mxCell>
        <mxCell id="wr7p7q90e52bjkLaRT0F-47" value="" style="sketch=0;pointerEvents=1;shadow=0;dashed=0;html=1;strokeColor=#6c8ebf;labelPosition=center;verticalLabelPosition=bottom;verticalAlign=top;align=center;fillColor=#dae8fc;shape=mxgraph.mscae.intune.account_portal" vertex="1" parent="wr7p7q90e52bjkLaRT0F-46">
          <mxGeometry y="6" width="22.666666666666664" height="24" as="geometry" />
        </mxCell>
        <mxCell id="wr7p7q90e52bjkLaRT0F-48" value="&lt;div style=&quot;background-color: rgb(255, 255, 255); font-family: Consolas, &amp;quot;Courier New&amp;quot;, monospace; font-size: 14px; line-height: 19px;&quot;&gt;tbd-terraform&lt;/div&gt;" style="text;html=1;strokeColor=none;fillColor=none;align=left;verticalAlign=middle;whiteSpace=wrap;rounded=0;" vertex="1" parent="wr7p7q90e52bjkLaRT0F-46">
          <mxGeometry x="34" width="136" height="36" as="geometry" />
        </mxCell>
        <mxCell id="wr7p7q90e52bjkLaRT0F-49" value="&lt;ul&gt;&lt;li&gt;&lt;span style=&quot;font-size: 10px; background-color: initial;&quot;&gt;owner&lt;/span&gt;&lt;br&gt;&lt;/li&gt;&lt;/ul&gt;" style="text;html=1;strokeColor=none;fillColor=none;align=left;verticalAlign=middle;whiteSpace=wrap;rounded=0;" vertex="1" parent="wr7p7q90e52bjkLaRT0F-52">
          <mxGeometry x="30" y="115" width="158.66666666666666" height="36" as="geometry" />
        </mxCell>
      </root>
    </mxGraphModel>
  </diagram>
</mxfile>
